{
  "accessors": [
    {
      "bufferView": 2,
      "componentType": 5126,
      "count": 583,
      "max": [
        9.524182473796827e-07,
        0.3104870021343231,
        10.34949016571045
      ],
      "min": [
        -10.690776824951172,
        -0.3104870021343231,
        -10.348868370056152
      ],
      "type": "VEC3"
    },
    {
      "bufferView": 2,
      "byteOffset": 6996,
      "componentType": 5126,
      "count": 583,
      "max": [
        1.0,
        1.0,
        1.0
      ],
      "min": [
        -1.0,
        -1.0,
        -1.0
      ],
      "type": "VEC3"
    },
    {
      "bufferView": 1,
      "componentType": 5126,
      "count": 583,
      "max": [
        0.4932757019996643,
        0.9815764427185059
      ],
      "min": [
        0.23022963106632233,
        0.021057456731796265
      ],
      "type": "VEC2"
    },
    {
      "bufferView": 1,
      "byteOffset": 4664,
      "componentType": 5126,
      "count": 583,
      "max": [
        0.4932757019996643,
        0.9815764427185059
      ],
      "min": [
        0.23022963106632233,
        0.021057456731796265
      ],
      "type": "VEC2"
    },
    {
      "bufferView": 0,
      "componentType": 5125,
      "count": 1728,
      "type": "SCALAR"
    },
    {
      "bufferView": 2,
      "byteOffset": 13992,
      "componentType": 5126,
      "count": 1442,
      "max": [
        -9.305849075317383,
        0.3805930018424988,
        1.9600152969360352
      ],
      "min": [
        -12.075706481933594,
        -0.3805930018424988,
        -1.9600152969360352
      ],
      "type": "VEC3"
    },
    {
      "bufferView": 2,
      "byteOffset": 31296,
      "componentType": 5126,
      "count": 1442,
      "max": [
        1.0,
        1.0,
        1.0
      ],
      "min": [
        -1.0,
        -1.0,
        -1.0
      ],
      "type": "VEC3"
    },
    {
      "bufferView": 1,
      "byteOffset": 9328,
      "componentType": 5126,
      "count": 1442,
      "max": [
        0.9987895488739014,
        0.9978878498077393
      ],
      "min": [
        0.00017564631707500666,
        0.0022624628618359566
      ],
      "type": "VEC2"
    },
    {
      "bufferView": 1,
      "byteOffset": 20864,
      "componentType": 5126,
      "count": 1442,
      "max": [
        1.0000001192092896,
        0.0
      ],
      "min": [
        0.9999998211860657,
        0.0
      ],
      "type": "VEC2"
    },
    {
      "bufferView": 1,
      "byteOffset": 32400,
      "componentType": 5126,
      "count": 1442,
      "max": [
        0.9987895488739014,
        0.9978878498077393
      ],
      "min": [
        0.00017564631707500666,
        0.0022624628618359566
      ],
      "type": "VEC2"
    },
    {
      "bufferView": 0,
      "byteOffset": 6912,
      "componentType": 5125,
      "count": 4032,
      "type": "SCALAR"
    },
    {
      "bufferView": 2,
      "byteOffset": 48600,
      "componentType": 5126,
      "count": 24,
      "max": [
        -9.66574764251709,
        0.20548175275325775,
        1.6001172065734863
      ],
      "min": [
        -11.715807914733887,
        -0.20548176765441895,
        -1.6001172065734863
      ],
      "type": "VEC3"
    },
    {
      "bufferView": 2,
      "byteOffset": 48888,
      "componentType": 5126,
      "count": 24,
      "max": [
        1.0,
        1.0,
        1.0
      ],
      "min": [
        -1.0,
        -1.0,
        -1.0
      ],
      "type": "VEC3"
    },
    {
      "bufferView": 1,
      "byteOffset": 43936,
      "componentType": 5126,
      "count": 24,
      "max": [
        0.9990878105163574,
        0.9927183389663696
      ],
      "min": [
        0.004550308454781771,
        0.007281553000211716
      ],
      "type": "VEC2"
    },
    {
      "bufferView": 1,
      "byteOffset": 44128,
      "componentType": 5126,
      "count": 24,
      "max": [
        1.0,
        0.0
      ],
      "min": [
        1.0,
        0.0
      ],
      "type": "VEC2"
    },
    {
      "bufferView": 1,
      "byteOffset": 44320,
      "componentType": 5126,
      "count": 24,
      "max": [
        0.9990878105163574,
        0.9927183389663696
      ],
      "min": [
        0.004550308454781771,
        0.007281553000211716
      ],
      "type": "VEC2"
    },
    {
      "bufferView": 0,
      "byteOffset": 23040,
      "componentType": 5125,
      "count": 36,
      "type": "SCALAR"
    },
    {
      "bufferView": 2,
      "byteOffset": 49176,
      "componentType": 5126,
      "count": 2504,
      "max": [
        9.253756523132324,
        0.2920738756656647,
        0.8783268928527832
      ],
      "min": [
        -0.27536284923553467,
        -0.2446461319923401,
        -0.8783268928527832
      ],
      "type": "VEC3"
    },
    {
      "bufferView": 2,
      "byteOffset": 79224,
      "componentType": 5126,
      "count": 2504,
      "max": [
        1.0,
        1.0,
        1.0
      ],
      "min": [
        -1.0,
        -1.0,
        -1.0
      ],
      "type": "VEC3"
    },
    {
      "bufferView": 1,
      "byteOffset": 44512,
      "componentType": 5126,
      "count": 2504,
      "max": [
        0.9590147137641907,
        0.29795098304748535
      ],
      "min": [
        0.12693734467029572,
        0.0004646182351280004
      ],
      "type": "VEC2"
    },
    {
      "bufferView": 1,
      "byteOffset": 64544,
      "componentType": 5126,
      "count": 2504,
      "max": [
        0.9590147137641907,
        0.29795098304748535
      ],
      "min": [
        0.12693734467029572,
        0.0004646182351280004
      ],
      "type": "VEC2"
    },
    {
      "bufferView": 0,
      "byteOffset": 23184,
      "componentType": 5125,
      "count": 6426,
      "type": "SCALAR"
    },
    {
      "bufferView": 2,
      "byteOffset": 109272,
      "componentType": 5126,
      "count": 2066,
      "max": [
        9.253756523132324,
        0.13511782884597778,
        0.14371907711029053
      ],
      "min": [
        -0.27536284923553467,
        -0.13511770963668823,
        -0.14371907711029053
      ],
      "type": "VEC3"
    },
    {
      "bufferView": 2,
      "byteOffset": 134064,
      "componentType": 5126,
      "count": 2066,
      "max": [
        1.0,
        1.0,
        1.0
      ],
      "min": [
        -1.0,
        -1.0,
        -1.0
      ],
      "type": "VEC3"
    },
    {
      "bufferView": 1,
      "byteOffset": 84576,
      "componentType": 5126,
      "count": 2066,
      "max": [
        0.996854841709137,
        0.31744545698165894
      ],
      "min": [
        0.2840675115585327,
        0.0003877989365719259
      ],
      "type": "VEC2"
    },
    {
      "bufferView": 1,
      "byteOffset": 101104,
      "componentType": 5126,
      "count": 2066,
      "max": [
        0.0,
        0.0
      ],
      "min": [
        0.0,
        0.0
      ],
      "type": "VEC2"
    },
    {
      "bufferView": 0,
      "byteOffset": 48888,
      "componentType": 5125,
      "count": 5040,
      "type": "SCALAR"
    },
    {
      "bufferView": 2,
      "byteOffset": 158856,
      "componentType": 5126,
      "count": 1733,
      "max": [
        9.15881061553955,
        0.06943555176258087,
        0.06943556666374207
      ],
      "min": [
        -0.18041716516017914,
        -0.06943559646606445,
        -0.06943558901548386
      ],
      "type": "VEC3"
    },
    {
      "bufferView": 2,
      "byteOffset": 179652,
      "componentType": 5126,
      "count": 1733,
      "max": [
        1.0,
        1.0,
        1.0
      ],
      "min": [
        -1.0,
        -1.0,
        -1.0
      ],
      "type": "VEC3"
    },
    {
      "bufferView": 1,
      "byteOffset": 117632,
      "componentType": 5126,
      "count": 1733,
      "max": [
        0.9997843503952026,
        0.3155016303062439
      ],
      "min": [
        0.3768137991428375,
        0.00025408639339730144
      ],
      "type": "VEC2"
    },
    {
      "bufferView": 1,
      "byteOffset": 131496,
      "componentType": 5126,
      "count": 1733,
      "max": [
        0.0,
        0.0
      ],
      "min": [
        0.0,
        0.0
      ],
      "type": "VEC2"
    },
    {
      "bufferView": 1,
      "byteOffset": 145360,
      "componentType": 5126,
      "count": 1733,
      "max": [
        0.9997843503952026,
        0.3155016303062439
      ],
      "min": [
        0.3768137991428375,
        0.00025408639339730144
      ],
      "type": "VEC2"
    },
    {
      "bufferView": 0,
      "byteOffset": 69048,
      "componentType": 5125,
      "count": 5352,
      "type": "SCALAR"
    },
    {
      "bufferView": 2,
      "byteOffset": 200448,
      "componentType": 5126,
      "count": 2405,
      "max": [
        9.033971786499023,
        0.3602607548236847,
        0.09563207626342773
      ],
      "min": [
        -0.03436878323554993,
        -0.09563111513853073,
        -0.8793925046920776
      ],
      "type": "VEC3"
    },
    {
      "bufferView": 2,
      "byteOffset": 229308,
      "componentType": 5126,
      "count": 2405,
      "max": [
        1.0,
        0.9998834133148193,
        1.0
      ],
      "min": [
        -1.0,
        -0.9998834133148193,
        -0.9997330904006958
      ],
      "type": "VEC3"
    },
    {
      "bufferView": 1,
      "byteOffset": 159224,
      "componentType": 5126,
      "count": 2405,
      "max": [
        0.987048327922821,
        0.42231982946395874
      ],
      "min": [
        0.126294806599617,
        0.006241179071366787
      ],
      "type": "VEC2"
    },
    {
      "bufferView": 1,
      "byteOffset": 178464,
      "componentType": 5126,
      "count": 2405,
      "max": [
        0.987048327922821,
        0.42231982946395874
      ],
      "min": [
        0.126294806599617,
        0.006241179071366787
      ],
      "type": "VEC2"
    },
    {
      "bufferView": 0,
      "byteOffset": 90456,
      "componentType": 5125,
      "count": 6696,
      "type": "SCALAR"
    },
    {
      "bufferView": 2,
      "byteOffset": 258168,
      "componentType": 5126,
      "count": 853,
      "max": [
        0.0607391893863678,
        0.06073907017707825,
        10.340689659118652
      ],
      "min": [
        -0.06073904410004616,
        -0.06073910742998123,
        -10.340691566467285
      ],
      "type": "VEC3"
    },
    {
      "bufferView": 2,
      "byteOffset": 268404,
      "componentType": 5126,
      "count": 853,
      "max": [
        1.0,
        1.0,
        1.0
      ],
      "min": [
        -1.0,
        -1.0,
        -1.0
      ],
      "type": "VEC3"
    },
    {
      "bufferView": 1,
      "byteOffset": 197704,
      "componentType": 5126,
      "count": 853,
      "max": [
        0.9151886701583862,
        0.9854347109794617
      ],
      "min": [
        0.01443550642579794,
        0.014563066884875298
      ],
      "type": "VEC2"
    },
    {
      "bufferView": 1,
      "byteOffset": 204528,
      "componentType": 5126,
      "count": 853,
      "max": [
        0.0,
        0.0
      ],
      "min": [
        0.0,
        0.0
      ],
      "type": "VEC2"
    },
    {
      "bufferView": 1,
      "byteOffset": 211352,
      "componentType": 5126,
      "count": 853,
      "max": [
        0.9151886701583862,
        0.9854347109794617
      ],
      "min": [
        0.01443550642579794,
        0.014563066884875298
      ],
      "type": "VEC2"
    },
    {
      "bufferView": 0,
      "byteOffset": 117240,
      "componentType": 5125,
      "count": 2484,
      "type": "SCALAR"
    },
    {
      "bufferView": 2,
      "byteOffset": 278640,
      "componentType": 5126,
      "count": 420,
      "max": [
        0.22669661045074463,
        0.1913263201713562,
        0.4391634464263916
      ],
      "min": [
        -0.22669953107833862,
        -0.17124852538108826,
        -0.4391634464263916
      ],
      "type": "VEC3"
    },
    {
      "bufferView": 2,
      "byteOffset": 283680,
      "componentType": 5126,
      "count": 420,
      "max": [
        1.0,
        1.0,
        1.0
      ],
      "min": [
        -1.0,
        -1.0,
        -1.0
      ],
      "type": "VEC3"
    },
    {
      "bufferView": 1,
      "byteOffset": 218176,
      "componentType": 5126,
      "count": 420,
      "max": [
        0.8412694334983826,
        0.31094205379486084
      ],
      "min": [
        0.12619256973266602,
        0.16013742983341217
      ],
      "type": "VEC2"
    },
    {
      "bufferView": 1,
      "byteOffset": 221536,
      "componentType": 5126,
      "count": 420,
      "max": [
        0.0,
        0.0
      ],
      "min": [
        0.0,
        0.0
      ],
      "type": "VEC2"
    },
    {
      "bufferView": 1,
      "byteOffset": 224896,
      "componentType": 5126,
      "count": 420,
      "max": [
        0.8412694334983826,
        0.31094205379486084
      ],
      "min": [
        0.12619256973266602,
        0.16013742983341217
      ],
      "type": "VEC2"
    },
    {
      "bufferView": 0,
      "byteOffset": 127176,
      "componentType": 5125,
      "count": 1218,
      "type": "SCALAR"
    },
    {
      "bufferView": 2,
      "byteOffset": 288720,
      "componentType": 5126,
      "count": 4505,
      "max": [
        0.2629685401916504,
        0.6580442190170288,
        4.8351593017578125
      ],
      "min": [
        -0.26296842098236084,
        0.4884992837905884,
        -4.8351593017578125
      ],
      "type": "VEC3"
    },
    {
      "bufferView": 2,
      "byteOffset": 342780,
      "componentType": 5126,
      "count": 4505,
      "max": [
        1.0,
        1.0,
        1.0
      ],
      "min": [
        -1.0,
        -1.0,
        -1.0
      ],
      "type": "VEC3"
    },
    {
      "bufferView": 1,
      "byteOffset": 228256,
      "componentType": 5126,
      "count": 4505,
      "max": [
        0.998020350933075,
        0.3180336356163025
      ],
      "min": [
        0.12563057243824005,
        0.017573606222867966
      ],
      "type": "VEC2"
    },
    {
      "bufferView": 1,
      "byteOffset": 264296,
      "componentType": 5126,
      "count": 4505,
      "max": [
        0.0,
        0.0
      ],
      "min": [
        0.0,
        0.0
      ],
      "type": "VEC2"
    },
    {
      "bufferView": 1,
      "byteOffset": 300336,
      "componentType": 5126,
      "count": 4505,
      "max": [
        0.998020350933075,
        0.3180336356163025
      ],
      "min": [
        0.12563057243824005,
        0.017573606222867966
      ],
      "type": "VEC2"
    },
    {
      "bufferView": 0,
      "byteOffset": 132048,
      "componentType": 5125,
      "count": 10920,
      "type": "SCALAR"
    },
    {
      "bufferView": 2,
      "byteOffset": 396840,
      "componentType": 5126,
      "count": 407,
      "max": [
        0.22669661045074463,
        0.1913263201713562,
        -18.918521881103516
      ],
      "min": [
        -0.22669953107833862,
        -0.17124852538108826,
        -19.79684829711914
      ],
      "type": "VEC3"
    },
    {
      "bufferView": 2,
      "byteOffset": 401724,
      "componentType": 5126,
      "count": 407,
      "max": [
        1.0,
        1.0,
        1.0
      ],
      "min": [
        -1.0,
        -1.0,
        -1.0
      ],
      "type": "VEC3"
    },
    {
      "bufferView": 1,
      "byteOffset": 336376,
      "componentType": 5126,
      "count": 407,
      "max": [
        0.9732614755630493,
        0.26098665595054626
      ],
      "min": [
        0.28439822793006897,
        0.0006184852682054043
      ],
      "type": "VEC2"
    },
    {
      "bufferView": 1,
      "byteOffset": 339632,
      "componentType": 5126,
      "count": 407,
      "max": [
        0.0,
        0.0
      ],
      "min": [
        0.0,
        0.0
      ],
      "type": "VEC2"
    },
    {
      "bufferView": 1,
      "byteOffset": 342888,
      "componentType": 5126,
      "count": 407,
      "max": [
        0.9732614755630493,
        0.26098665595054626
      ],
      "min": [
        0.28439822793006897,
        0.0006184852682054043
      ],
      "type": "VEC2"
    },
    {
      "bufferView": 0,
      "byteOffset": 175728,
      "componentType": 5125,
      "count": 1218,
      "type": "SCALAR"
    },
    {
      "bufferView": 2,
      "byteOffset": 406608,
      "componentType": 5126,
      "count": 24,
      "max": [
        1.0250272750854492,
        0.20548175275325775,
        1.6001172065734863
      ],
      "min": [
        -1.0250329971313477,
        -0.20548176765441895,
        -1.6001172065734863
      ],
      "type": "VEC3"
    },
    {
      "bufferView": 2,
      "byteOffset": 406896,
      "componentType": 5126,
      "count": 24,
      "max": [
        1.0,
        1.0,
        1.0
      ],
      "min": [
        -1.0,
        -1.0,
        -1.0
      ],
      "type": "VEC3"
    },
    {
      "bufferView": 1,
      "byteOffset": 346144,
      "componentType": 5126,
      "count": 24,
      "max": [
        0.9990878105163574,
        0.9927183985710144
      ],
      "min": [
        0.004550311714410782,
        0.004664539825171232
      ],
      "type": "VEC2"
    },
    {
      "bufferView": 1,
      "byteOffset": 346336,
      "componentType": 5126,
      "count": 24,
      "max": [
        0.0,
        0.0
      ],
      "min": [
        0.0,
        0.0
      ],
      "type": "VEC2"
    },
    {
      "bufferView": 1,
      "byteOffset": 346528,
      "componentType": 5126,
      "count": 24,
      "max": [
        0.9990878105163574,
        0.9927183985710144
      ],
      "min": [
        0.004550311714410782,
        0.004664539825171232
      ],
      "type": "VEC2"
    },
    {
      "bufferView": 0,
      "byteOffset": 180600,
      "componentType": 5125,
      "count": 36,
      "type": "SCALAR"
    },
    {
      "bufferView": 2,
      "byteOffset": 407184,
      "componentType": 5126,
      "count": 1432,
      "max": [
        1.384925365447998,
        0.3805930018424988,
        1.9600152969360352
      ],
      "min": [
        -1.3849310874938965,
        -0.3805930018424988,
        -1.9600152969360352
      ],
      "type": "VEC3"
    },
    {
      "bufferView": 2,
      "byteOffset": 424368,
      "componentType": 5126,
      "count": 1432,
      "max": [
        1.0,
        1.0,
        1.0
      ],
      "min": [
        -1.0,
        -1.0,
        -1.0
      ],
      "type": "VEC3"
    },
    {
      "bufferView": 1,
      "byteOffset": 346720,
      "componentType": 5126,
      "count": 1432,
      "max": [
        0.9999231696128845,
        0.989169180393219
      ],
      "min": [
        0.0030378627125173807,
        0.0023007760755717754
      ],
      "type": "VEC2"
    },
    {
      "bufferView": 1,
      "byteOffset": 358176,
      "componentType": 5126,
      "count": 1432,
      "max": [
        0.0,
        0.0
      ],
      "min": [
        0.0,
        0.0
      ],
      "type": "VEC2"
    },
    {
      "bufferView": 1,
      "byteOffset": 369632,
      "componentType": 5126,
      "count": 1432,
      "max": [
        0.9999231696128845,
        0.989169180393219
      ],
      "min": [
        0.0030378627125173807,
        0.0023007760755717754
      ],
      "type": "VEC2"
    },
    {
      "bufferView": 0,
      "byteOffset": 180744,
      "componentType": 5125,
      "count": 4032,
      "type": "SCALAR"
    },
    {
      "bufferView": 2,
      "byteOffset": 441552,
      "componentType": 5126,
      "count": 420,
      "max": [
        -1.4856876134872437,
        0.1913263201713562,
        0.4391634464263916
      ],
      "min": [
        -1.9390836954116821,
        -0.17124852538108826,
        -0.4391634464263916
      ],
      "type": "VEC3"
    },
    {
      "bufferView": 2,
      "byteOffset": 446592,
      "componentType": 5126,
      "count": 420,
      "max": [
        1.0,
        1.0,
        1.0
      ],
      "min": [
        -1.0,
        -1.0,
        -1.0
      ],
      "type": "VEC3"
    },
    {
      "bufferView": 1,
      "byteOffset": 381088,
      "componentType": 5126,
      "count": 420,
      "max": [
        0.8412694334983826,
        0.31094205379486084
      ],
      "min": [
        0.1633933186531067,
        0.16562838852405548
      ],
      "type": "VEC2"
    },
    {
      "bufferView": 1,
      "byteOffset": 384448,
      "componentType": 5126,
      "count": 420,
      "max": [
        1.0000001192092896,
        0.0
      ],
      "min": [
        0.9999998807907104,
        0.0
      ],
      "type": "VEC2"
    },
    {
      "bufferView": 1,
      "byteOffset": 387808,
      "componentType": 5126,
      "count": 420,
      "max": [
        0.8412694334983826,
        0.31094205379486084
      ],
      "min": [
        0.1633933186531067,
        0.16562838852405548
      ],
      "type": "VEC2"
    },
    {
      "bufferView": 0,
      "byteOffset": 196872,
      "componentType": 5125,
      "count": 1218,
      "type": "SCALAR"
    },
    {
      "bufferView": 2,
      "byteOffset": 451632,
      "componentType": 5126,
      "count": 411,
      "max": [
        -1.485687494277954,
        0.1913263201713562,
        -18.918521881103516
      ],
      "min": [
        -1.9390838146209717,
        -0.17124852538108826,
        -19.79684829711914
      ],
      "type": "VEC3"
    },
    {
      "bufferView": 2,
      "byteOffset": 456564,
      "componentType": 5126,
      "count": 411,
      "max": [
        1.0,
        1.0,
        1.0
      ],
      "min": [
        -1.0,
        -1.0,
        -1.0
      ],
      "type": "VEC3"
    },
    {
      "bufferView": 1,
      "byteOffset": 391168,
      "componentType": 5126,
      "count": 411,
      "max": [
        0.9153620004653931,
        0.3076622784137726
      ],
      "min": [
        0.4013407230377197,
        0.16562838852405548
      ],
      "type": "VEC2"
    },
    {
      "bufferView": 1,
      "byteOffset": 394456,
      "componentType": 5126,
      "count": 411,
      "max": [
        0.0,
        0.0
      ],
      "min": [
        0.0,
        0.0
      ],
      "type": "VEC2"
    },
    {
      "bufferView": 1,
      "byteOffset": 397744,
      "componentType": 5126,
      "count": 411,
      "max": [
        0.9153620004653931,
        0.3076622784137726
      ],
      "min": [
        0.4013407230377197,
        0.16562838852405548
      ],
      "type": "VEC2"
    },
    {
      "bufferView": 0,
      "byteOffset": 201744,
      "componentType": 5125,
      "count": 1218,
      "type": "SCALAR"
    },
    {
      "bufferView": 2,
      "byteOffset": 461496,
      "componentType": 5126,
      "count": 4440,
      "max": [
        -1.4494186639785767,
        0.6580442190170288,
        4.8351593017578125
      ],
      "min": [
        -1.975355625152588,
        0.4884992837905884,
        -4.8351593017578125
      ],
      "type": "VEC3"
    },
    {
      "bufferView": 2,
      "byteOffset": 514776,
      "componentType": 5126,
      "count": 4440,
      "max": [
        1.0,
        1.0,
        1.0
      ],
      "min": [
        -1.0,
        -1.0,
        -1.0
      ],
      "type": "VEC3"
    },
    {
      "bufferView": 1,
      "byteOffset": 401032,
      "componentType": 5126,
      "count": 4440,
      "max": [
        0.9947842955589294,
        0.3180336356163025
      ],
      "min": [
        0.14067436754703522,
        0.00034521924681030214
      ],
      "type": "VEC2"
    },
    {
      "bufferView": 1,
      "byteOffset": 436552,
      "componentType": 5126,
      "count": 4440,
      "max": [
        0.0,
        0.0
      ],
      "min": [
        0.0,
        0.0
      ],
      "type": "VEC2"
    },
    {
      "bufferView": 1,
      "byteOffset": 472072,
      "componentType": 5126,
      "count": 4440,
      "max": [
        0.9947842955589294,
        0.3180336356163025
      ],
      "min": [
        0.14067436754703522,
        0.00034521924681030214
      ],
      "type": "VEC2"
    },
    {
      "bufferView": 0,
      "byteOffset": 206616,
      "componentType": 5125,
      "count": 10812,
      "type": "SCALAR"
    },
    {
      "bufferView": 2,
      "byteOffset": 568056,
      "componentType": 5126,
      "count": 853,
      "max": [
        -1.6516480445861816,
        0.06073907017707825,
        10.340689659118652
      ],
      "min": [
        -1.773126244544983,
        -0.06073910742998123,
        -10.340691566467285
      ],
      "type": "VEC3"
    },
    {
      "bufferView": 2,
      "byteOffset": 578292,
      "componentType": 5126,
      "count": 853,
      "max": [
        1.0,
        1.0,
        1.0
      ],
      "min": [
        -1.0,
        -1.0,
        -1.0
      ],
      "type": "VEC3"
    },
    {
      "bufferView": 1,
      "byteOffset": 507592,
      "componentType": 5126,
      "count": 853,
      "max": [
        0.9219889044761658,
        0.9852935671806335
      ],
      "min": [
        0.0002072084607789293,
        0.014706420712172985
      ],
      "type": "VEC2"
    },
    {
      "bufferView": 1,
      "byteOffset": 514416,
      "componentType": 5126,
      "count": 853,
      "max": [
        0.0,
        0.0
      ],
      "min": [
        0.0,
        0.0
      ],
      "type": "VEC2"
    },
    {
      "bufferView": 1,
      "byteOffset": 521240,
      "componentType": 5126,
      "count": 853,
      "max": [
        0.9219889044761658,
        0.9852935671806335
      ],
      "min": [
        0.0002072084607789293,
        0.014706420712172985
      ],
      "type": "VEC2"
    },
    {
      "bufferView": 0,
      "byteOffset": 249864,
      "componentType": 5125,
      "count": 2484,
      "type": "SCALAR"
    },
    {
      "bufferView": 2,
      "byteOffset": 588528,
      "componentType": 5126,
      "count": 2451,
      "max": [
        -1.4370242357254028,
        0.2920738756656647,
        0.8783268928527832
      ],
      "min": [
        -10.966143608093262,
        -0.2446461319923401,
        -0.8783268928527832
      ],
      "type": "VEC3"
    },
    {
      "bufferView": 2,
      "byteOffset": 617940,
      "componentType": 5126,
      "count": 2451,
      "max": [
        1.0,
        1.0,
        1.0
      ],
      "min": [
        -1.0,
        -1.0,
        -1.0
      ],
      "type": "VEC3"
    },
    {
      "bufferView": 1,
      "byteOffset": 528064,
      "componentType": 5126,
      "count": 2451,
      "max": [
        0.9558705687522888,
        0.3025747537612915
      ],
      "min": [
        0.12696824967861176,
        0.00031646789284422994
      ],
      "type": "VEC2"
    },
    {
      "bufferView": 1,
      "byteOffset": 547672,
      "componentType": 5126,
      "count": 2451,
      "max": [
        0.9558705687522888,
        0.3025747537612915
      ],
      "min": [
        0.12696824967861176,
        0.00031646789284422994
      ],
      "type": "VEC2"
    },
    {
      "bufferView": 0,
      "byteOffset": 259800,
      "componentType": 5125,
      "count": 6312,
      "type": "SCALAR"
    },
    {
      "bufferView": 2,
      "byteOffset": 647352,
      "componentType": 5126,
      "count": 1976,
      "max": [
        -1.4370242357254028,
        0.13511782884597778,
        0.14371907711029053
      ],
      "min": [
        -10.966143608093262,
        -0.13511770963668823,
        -0.14371907711029053
      ],
      "type": "VEC3"
    },
    {
      "bufferView": 2,
      "byteOffset": 671064,
      "componentType": 5126,
      "count": 1976,
      "max": [
        1.0,
        1.0,
        1.0
      ],
      "min": [
        -1.0,
        -1.0,
        -1.0
      ],
      "type": "VEC3"
    },
    {
      "bufferView": 1,
      "byteOffset": 567280,
      "componentType": 5126,
      "count": 1976,
      "max": [
        0.9949037432670593,
        0.317786306142807
      ],
      "min": [
        0.2842324376106262,
        0.08007235080003738
      ],
      "type": "VEC2"
    },
    {
      "bufferView": 1,
      "byteOffset": 583088,
      "componentType": 5126,
      "count": 1976,
      "max": [
        0.0,
        0.0
      ],
      "min": [
        0.0,
        0.0
      ],
      "type": "VEC2"
    },
    {
      "bufferView": 0,
      "byteOffset": 285048,
      "componentType": 5125,
      "count": 5040,
      "type": "SCALAR"
    },
    {
      "bufferView": 2,
      "byteOffset": 694776,
      "componentType": 5126,
      "count": 2386,
      "max": [
        -1.656808614730835,
        0.3602607548236847,
        0.09563207626342773
      ],
      "min": [
        -10.725149154663086,
        -0.09563111513853073,
        -0.8793925046920776
      ],
      "type": "VEC3"
    },
    {
      "bufferView": 2,
      "byteOffset": 723408,
      "componentType": 5126,
      "count": 2386,
      "max": [
        1.0,
        0.9998834133148193,
        1.0
      ],
      "min": [
        -1.0,
        -0.9998834133148193,
        -0.9997332096099854
      ],
      "type": "VEC3"
    },
    {
      "bufferView": 1,
      "byteOffset": 598896,
      "componentType": 5126,
      "count": 2386,
      "max": [
        0.9627898931503296,
        0.42231979966163635
      ],
      "min": [
        0.1085493341088295,
        0.006241178140044212
      ],
      "type": "VEC2"
    },
    {
      "bufferView": 1,
      "byteOffset": 617984,
      "componentType": 5126,
      "count": 2386,
      "max": [
        0.0,
        0.0
      ],
      "min": [
        0.0,
        0.0
      ],
      "type": "VEC2"
    },
    {
      "bufferView": 1,
      "byteOffset": 637072,
      "componentType": 5126,
      "count": 2386,
      "max": [
        0.0,
        0.0
      ],
      "min": [
        0.0,
        0.0
      ],
      "type": "VEC2"
    },
    {
      "bufferView": 1,
      "byteOffset": 656160,
      "componentType": 5126,
      "count": 2386,
      "max": [
        0.0,
        0.0
      ],
      "min": [
        0.0,
        0.0
      ],
      "type": "VEC2"
    },
    {
      "bufferView": 1,
      "byteOffset": 675248,
      "componentType": 5126,
      "count": 2386,
      "max": [
        0.9627898931503296,
        0.42231979966163635
      ],
      "min": [
        0.1085493341088295,
        0.006241178140044212
      ],
      "type": "VEC2"
    },
    {
      "bufferView": 0,
      "byteOffset": 305208,
      "componentType": 5125,
      "count": 6696,
      "type": "SCALAR"
    },
    {
      "bufferView": 2,
      "byteOffset": 752040,
      "componentType": 5126,
      "count": 1697,
      "max": [
        -1.5319699048995972,
        0.06943555176258087,
        0.06943556666374207
      ],
      "min": [
        -10.871197700500488,
        -0.06943559646606445,
        -0.06943558901548386
      ],
      "type": "VEC3"
    },
    {
      "bufferView": 2,
      "byteOffset": 772404,
      "componentType": 5126,
      "count": 1697,
      "max": [
        1.0,
        1.0,
        1.0
      ],
      "min": [
        -1.0,
        -1.0,
        -1.0
      ],
      "type": "VEC3"
    },
    {
      "bufferView": 1,
      "byteOffset": 694336,
      "componentType": 5126,
      "count": 1697,
      "max": [
        0.9993374347686768,
        0.31344348192214966
      ],
      "min": [
        0.38643279671669006,
        0.026882942765951157
      ],
      "type": "VEC2"
    },
    {
      "bufferView": 1,
      "byteOffset": 707912,
      "componentType": 5126,
      "count": 1697,
      "max": [
        0.0,
        0.0
      ],
      "min": [
        0.0,
        0.0
      ],
      "type": "VEC2"
    },
    {
      "bufferView": 1,
      "byteOffset": 721488,
      "componentType": 5126,
      "count": 1697,
      "max": [
        0.9993374347686768,
        0.31344348192214966
      ],
      "min": [
        0.38643279671669006,
        0.026882942765951157
      ],
      "type": "VEC2"
    },
    {
      "bufferView": 0,
      "byteOffset": 331992,
      "componentType": 5125,
      "count": 5352,
      "type": "SCALAR"
    },
    {
      "bufferView": 2,
      "byteOffset": 792768,
      "componentType": 5126,
      "count": 591,
      "max": [
        10.690776824951172,
        0.3104870021343231,
        10.349531173706055
      ],
      "min": [
        -9.524182473796827e-07,
        -0.3104870021343231,
        -10.348868370056152
      ],
      "type": "VEC3"
    },
    {
      "bufferView": 2,
      "byteOffset": 799860,
      "componentType": 5126,
      "count": 591,
      "max": [
        1.0,
        1.0,
        1.0
      ],
      "min": [
        -1.0,
        -1.0,
        -1.0
      ],
      "type": "VEC3"
    },
    {
      "bufferView": 1,
      "byteOffset": 735064,
      "componentType": 5126,
      "count": 591,
      "max": [
        0.7768979072570801,
        0.9815764427185059
      ],
      "min": [
        0.5138521194458008,
        0.021057456731796265
      ],
      "type": "VEC2"
    },
    {
      "bufferView": 1,
      "byteOffset": 739792,
      "componentType": 5126,
      "count": 591,
      "max": [
        0.7768979072570801,
        0.9815764427185059
      ],
      "min": [
        0.5138521194458008,
        0.021057456731796265
      ],
      "type": "VEC2"
    },
    {
      "bufferView": 0,
      "byteOffset": 353400,
      "componentType": 5125,
      "count": 1728,
      "type": "SCALAR"
    },
    {
      "bufferView": 2,
      "byteOffset": 806952,
      "componentType": 5126,
      "count": 869,
      "max": [
        10.993038177490234,
        0.6552290916442871,
        10.499998092651367
      ],
      "min": [
        -10.993038177490234,
        -0.6552290916442871,
        -10.499999046325684
      ],
      "type": "VEC3"
    },
    {
      "bufferView": 2,
      "byteOffset": 817380,
      "componentType": 5126,
      "count": 869,
      "max": [
        1.0,
        1.0,
        1.0
      ],
      "min": [
        -1.0,
        -1.0,
        -1.0
      ],
      "type": "VEC3"
    },
    {
      "bufferView": 1,
      "byteOffset": 744520,
      "componentType": 5126,
      "count": 869,
      "max": [
        0.19964033365249634,
        0.7587550282478333
      ],
      "min": [
        0.0753658264875412,
        0.5020226240158081
      ],
      "type": "VEC2"
    },
    {
      "bufferView": 1,
      "byteOffset": 751472,
      "componentType": 5126,
      "count": 869,
      "max": [
        0.19964033365249634,
        0.7587550282478333
      ],
      "min": [
        0.0753658264875412,
        0.5020226240158081
      ],
      "type": "VEC2"
    },
    {
      "bufferView": 0,
      "byteOffset": 360312,
      "componentType": 5125,
      "count": 2976,
      "type": "SCALAR"
    }
  ],
  "asset": {
    "extras": {
      "author": "moderncolin (https://sketchfab.com/moderncolin)",
      "license": "CC-BY-4.0 (http://creativecommons.org/licenses/by/4.0/)",
      "source": "https://sketchfab.com/3d-models/exit-door-double-0d1770e0baa942ecb14422f729b1f351",
      "title": "Exit Door Double"
    },
    "generator": "Sketchfab-12.66.0",
    "version": "2.0"
  },
  "bufferViews": [
    {
      "buffer": 0,
      "byteLength": 372216,
      "name": "floatBufferViews",
      "target": 34963
    },
    {
      "buffer": 0,
      "byteLength": 758424,
      "byteOffset": 372216,
      "byteStride": 8,
      "name": "floatBufferViews",
      "target": 34962
    },
    {
      "buffer": 0,
      "byteLength": 827808,
      "byteOffset": 1130640,
      "byteStride": 12,
      "name": "floatBufferViews",
      "target": 34962
    }
  ],
  "buffers": [
    {
      "byteLength": 1958448,
      "uri": "scene.bin"
    }
  ],
  "materials": [
    {
      "doubleSided": true,
      "name": "EmerganceyDouble_Door_Color_2",
      "pbrMetallicRoughness": {
        "baseColorFactor": [
          0.0699843,
          0.174054,
          0.0201521,
          1.0
        ],
        "metallicFactor": 0.0,
        "roughnessFactor": 0.9685123471162421
      }
    },
    {
      "doubleSided": true,
      "name": "Single_Door_Glass_Frame_Color_1",
      "pbrMetallicRoughness": {
        "baseColorFactor": [
          0.0759109,
          0.0759109,
          0.0759109,
          1.0
        ],
        "metallicFactor": 0.0,
        "roughnessFactor": 0.9792109438547405
      }
    },
    {
      "doubleSided": true,
      "name": "Single_Door_Glass_Color_1.001",
      "pbrMetallicRoughness": {
        "baseColorFactor": [
          0.0729087,
          0.250421,
          0.335735,
          1.0
        ],
        "metallicFactor": 0.0,
        "roughnessFactor": 0.9510655404884665
      }
    },
    {
      "doubleSided": true,
      "name": "Emergancey_Door_Handel_Holder_Color_1",
      "pbrMetallicRoughness": {
        "baseColorFactor": [
          0.0244296,
          0.117873,
          0.00623372,
          1.0
        ],
        "metallicFactor": 0.0,
        "roughnessFactor": 0.9798873339162587
      }
    },
    {
      "doubleSided": true,
      "name": "Emergancey_Door_Pin_Holder_Color_1",
      "pbrMetallicRoughness": {
        "baseColorFactor": [
          0.247216,
          0.0982979,
          0.149256,
          1.0
        ],
        "metallicFactor": 0.0,
        "roughnessFactor": 0.9701178443086906
      }
    },
    {
      "doubleSided": true,
      "name": "Emergancey_Door_Handel_Pin_Color_1",
      "pbrMetallicRoughness": {
        "baseColorFactor": [
          0.467793,
          0.374669,
          0.0103824,
          1.0
        ],
        "metallicFactor": 0.0,
        "roughnessFactor": 0.9176756535166573
      }
    },
    {
      "doubleSided": true,
      "name": "Emergancey_Door_Handel_Color",
      "pbrMetallicRoughness": {
        "baseColorFactor": [
          0.287398,
          0.111766,
          0.0372504,
          1.0
        ],
        "metallicFactor": 0.0,
        "roughnessFactor": 0.9678620376647262
      }
    },
    {
      "doubleSided": true,
      "name": "Emergancey_Door_Pole_Color_1",
      "pbrMetallicRoughness": {
        "baseColorFactor": [
          0.0961207,
          0.183605,
          0.0673769,
          1.0
        ],
        "metallicFactor": 0.0,
        "roughnessFactor": 0.964980007187636
      }
    },
    {
      "doubleSided": true,
      "name": "Emergancey_Door_Pole_Holders_Color_1",
      "pbrMetallicRoughness": {
        "baseColorFactor": [
          0.0227323,
          0.196793,
          0.137504,
          1.0
        ],
        "metallicFactor": 0.0,
        "roughnessFactor": 0.9652275711327263
      }
    },
    {
      "doubleSided": true,
      "name": "DoubleDoor_Frame_Color_Type_1",
      "pbrMetallicRoughness": {
        "baseColorFactor": [
          0.373645,
          0.283658,
          0.16908,
          1.0
        ],
        "metallicFactor": 0.0,
        "roughnessFactor": 0.9341440628005175
      }
    }
  ],
  "meshes": [
    {
      "name": "SingleDoor_Type_Tall.024_EmerganceyDouble_Door_Color_2_0",
      "primitives": [
        {
          "attributes": {
            "NORMAL": 1,
            "POSITION": 0,
            "TEXCOORD_0": 2,
            "TEXCOORD_1": 3
          },
          "indices": 4,
          "material": 0,
          "mode": 4
        }
      ]
    },
    {
      "name": "SingleDoor_Type_Tall.026_Single_Door_Glass_Frame_Color_1_0",
      "primitives": [
        {
          "attributes": {
            "NORMAL": 6,
            "POSITION": 5,
            "TEXCOORD_0": 7,
            "TEXCOORD_1": 8,
            "TEXCOORD_2": 9
          },
          "indices": 10,
          "material": 1,
          "mode": 4
        }
      ]
    },
    {
      "name": "SingleDoor_Type_Tall.027_Single_Door_Glass_Color_1.001_0",
      "primitives": [
        {
          "attributes": {
            "NORMAL": 12,
            "POSITION": 11,
            "TEXCOORD_0": 13,
            "TEXCOORD_1": 14,
            "TEXCOORD_2": 15
          },
          "indices": 16,
          "material": 2,
          "mode": 4
        }
      ]
    },
    {
      "name": "Emergancey_Door_Handel_Holder.000_Emergancey_Door_Handel_Holder_Color_1_0",
      "primitives": [
        {
          "attributes": {
            "NORMAL": 18,
            "POSITION": 17,
            "TEXCOORD_0": 19,
            "TEXCOORD_1": 20
          },
          "indices": 21,
          "material": 3,
          "mode": 4
        }
      ]
    },
    {
      "name": "Emergancey_Door_Pin_Holder.000_Emergancey_Door_Pin_Holder_Color_1_0",
      "primitives": [
        {
          "attributes": {
            "NORMAL": 23,
            "POSITION": 22,
            "TEXCOORD_0": 24,
            "TEXCOORD_1": 25
          },
          "indices": 26,
          "material": 4,
          "mode": 4
        }
      ]
    },
    {
      "name": "Emergancey_Door_Handel_Pin.000_Emergancey_Door_Handel_Pin_Color_1_0",
      "primitives": [
        {
          "attributes": {
            "NORMAL": 28,
            "POSITION": 27,
            "TEXCOORD_0": 29,
            "TEXCOORD_1": 30,
            "TEXCOORD_2": 31
          },
          "indices": 32,
          "material": 5,
          "mode": 4
        }
      ]
    },
    {
      "name": "Emergancey_Door_Handel.000_Emergancey_Door_Handel_Color_0",
      "primitives": [
        {
          "attributes": {
            "NORMAL": 34,
            "POSITION": 33,
            "TEXCOORD_0": 35,
            "TEXCOORD_1": 36
          },
          "indices": 37,
          "material": 6,
          "mode": 4
        }
      ]
    },
    {
      "name": "Emergancey_Door_Pole.000_Emergancey_Door_Pole_Color_1_0",
      "primitives": [
        {
          "attributes": {
            "NORMAL": 39,
            "POSITION": 38,
            "TEXCOORD_0": 40,
            "TEXCOORD_1": 41,
            "TEXCOORD_2": 42
          },
          "indices": 43,
          "material": 7,
          "mode": 4
        }
      ]
    },
    {
      "name": "Emergancey_Door_Pole_Holders_Type_1.000_Emergancey_Door_Pole_Holders_Color_1_0",
      "primitives": [
        {
          "attributes": {
            "NORMAL": 45,
            "POSITION": 44,
            "TEXCOORD_0": 46,
            "TEXCOORD_1": 47,
            "TEXCOORD_2": 48
          },
          "indices": 49,
          "material": 8,
          "mode": 4
        }
      ]
    },
    {
      "name": "Emergancey_Door_Pole_Holders_Type_2.000_Emergancey_Door_Pole_Holders_Color_1_0",
      "primitives": [
        {
          "attributes": {
            "NORMAL": 51,
            "POSITION": 50,
            "TEXCOORD_0": 52,
            "TEXCOORD_1": 53,
            "TEXCOORD_2": 54
          },
          "indices": 55,
          "material": 8,
          "mode": 4
        }
      ]
    },
    {
      "name": "SingleDoor_Type_Tall.035_Emergancey_Door_Pole_Holders_Color_1_0",
      "primitives": [
        {
          "attributes": {
            "NORMAL": 57,
            "POSITION": 56,
            "TEXCOORD_0": 58,
            "TEXCOORD_1": 59,
            "TEXCOORD_2": 60
          },
          "indices": 61,
          "material": 8,
          "mode": 4
        }
      ]
    },
    {
      "name": "SingleDoor_Type_Tall.039_Single_Door_Glass_Color_1.001_0",
      "primitives": [
        {
          "attributes": {
            "NORMAL": 63,
            "POSITION": 62,
            "TEXCOORD_0": 64,
            "TEXCOORD_1": 65,
            "TEXCOORD_2": 66
          },
          "indices": 67,
          "material": 2,
          "mode": 4
        }
      ]
    },
    {
      "name": "SingleDoor_Type_Tall.040_Single_Door_Glass_Frame_Color_1_0",
      "primitives": [
        {
          "attributes": {
            "NORMAL": 69,
            "POSITION": 68,
            "TEXCOORD_0": 70,
            "TEXCOORD_1": 71,
            "TEXCOORD_2": 72
          },
          "indices": 73,
          "material": 1,
          "mode": 4
        }
      ]
    },
    {
      "name": "Emergancey_Door_Pole_Holders_Type_1.001_Emergancey_Door_Pole_Holders_Color_1_0",
      "primitives": [
        {
          "attributes": {
            "NORMAL": 75,
            "POSITION": 74,
            "TEXCOORD_0": 76,
            "TEXCOORD_1": 77,
            "TEXCOORD_2": 78
          },
          "indices": 79,
          "material": 8,
          "mode": 4
        }
      ]
    },
    {
      "name": "SingleDoor_Type_Tall.045_Emergancey_Door_Pole_Holders_Color_1_0",
      "primitives": [
        {
          "attributes": {
            "NORMAL": 81,
            "POSITION": 80,
            "TEXCOORD_0": 82,
            "TEXCOORD_1": 83,
            "TEXCOORD_2": 84
          },
          "indices": 85,
          "material": 8,
          "mode": 4
        }
      ]
    },
    {
      "name": "Emergancey_Door_Pole_Holders_Type_2.001_Emergancey_Door_Pole_Holders_Color_1_0",
      "primitives": [
        {
          "attributes": {
            "NORMAL": 87,
            "POSITION": 86,
            "TEXCOORD_0": 88,
            "TEXCOORD_1": 89,
            "TEXCOORD_2": 90
          },
          "indices": 91,
          "material": 8,
          "mode": 4
        }
      ]
    },
    {
      "name": "Emergancey_Door_Pole.001_Emergancey_Door_Pole_Color_1_0",
      "primitives": [
        {
          "attributes": {
            "NORMAL": 93,
            "POSITION": 92,
            "TEXCOORD_0": 94,
            "TEXCOORD_1": 95,
            "TEXCOORD_2": 96
          },
          "indices": 97,
          "material": 7,
          "mode": 4
        }
      ]
    },
    {
      "name": "Emergancey_Door_Handel_Holder.001_Emergancey_Door_Handel_Holder_Color_1_0",
      "primitives": [
        {
          "attributes": {
            "NORMAL": 99,
            "POSITION": 98,
            "TEXCOORD_0": 100,
            "TEXCOORD_1": 101
          },
          "indices": 102,
          "material": 3,
          "mode": 4
        }
      ]
    },
    {
      "name": "Emergancey_Door_Pin_Holder.001_Emergancey_Door_Pin_Holder_Color_1_0",
      "primitives": [
        {
          "attributes": {
            "NORMAL": 104,
            "POSITION": 103,
            "TEXCOORD_0": 105,
            "TEXCOORD_1": 106
          },
          "indices": 107,
          "material": 4,
          "mode": 4
        }
      ]
    },
    {
      "name": "Emergancey_Door_Handel.001_Emergancey_Door_Handel_Color_0",
      "primitives": [
        {
          "attributes": {
            "NORMAL": 109,
            "POSITION": 108,
            "TEXCOORD_0": 110,
            "TEXCOORD_1": 111,
            "TEXCOORD_2": 112,
            "TEXCOORD_3": 113,
            "TEXCOORD_4": 114
          },
          "indices": 115,
          "material": 6,
          "mode": 4
        }
      ]
    },
    {
      "name": "Emergancey_Door_Handel_Pin.001_Emergancey_Door_Handel_Pin_Color_1_0",
      "primitives": [
        {
          "attributes": {
            "NORMAL": 117,
            "POSITION": 116,
            "TEXCOORD_0": 118,
            "TEXCOORD_1": 119,
            "TEXCOORD_2": 120
          },
          "indices": 121,
          "material": 5,
          "mode": 4
        }
      ]
    },
    {
      "name": "SingleDoor_Type_Tall.025_EmerganceyDouble_Door_Color_2_0",
      "primitives": [
        {
          "attributes": {
            "NORMAL": 123,
            "POSITION": 122,
            "TEXCOORD_0": 124,
            "TEXCOORD_1": 125
          },
          "indices": 126,
          "material": 0,
          "mode": 4
        }
      ]
    },
    {
      "name": "SingleDoor_Type_Tall.023_DoubleDoor_Frame_Color_Type_1_0",
      "primitives": [
        {
          "attributes": {
            "NORMAL": 128,
            "POSITION": 127,
            "TEXCOORD_0": 129,
            "TEXCOORD_1": 130
          },
          "indices": 131,
          "material": 9,
          "mode": 4
        }
      ]
    }
  ],
  "nodes": [
    {
      "children": [
        1
      ],
      "matrix": [
        1.0,
        0.0,
        0.0,
        0.0,
        0.0,
        2.220446049250313e-16,
        -1.0,
        0.0,
        0.0,
        1.0,
        2.220446049250313e-16,
        0.0,
        0.0,
        0.0,
        0.0,
        1.0
      ],
      "name": "Sketchfab_model"
    },
    {
      "children": [
        2
      ],
      "matrix": [
        1.0,
        0.0,
        0.0,
        0.0,
        0.0,
        0.0,
        1.0,
        0.0,
        0.0,
        -1.0,
        0.0,
        0.0,
        0.0,
        0.0,
        0.0,
        1.0
      ],
      "name": "59f73fbe957444198ea942773a0d0d95.fbx"
    },
    {
      "children": [
        3,
        5,
        7,
        9,
        11,
        13,
        15,
        17,
        19,
        21,
        23,
        25,
        27,
        29,
        31,
        33,
        35,
        37,
        39,
        41,
        43,
        45,
        47
      ],
      "name": "RootNode"
    },
    {
      "children": [
        4
      ],
      "matrix": [
        1.0,
        0.0,
        0.0,
        0.0,
        -0.0,
        -1.6292067939183141e-07,
        -0.9999999999999868,
        0.0,
        0.0,
        0.9999999999999868,
        -1.6292067939183141e-07,
        0.0,
        -95.48607635498047,
        10.348798751831055,
        -1.4394521713256836e-05,
        1.0
      ],
      "name": "SingleDoor_Type_Tall.024"
    },
    {
      "mesh": 0,
      "name": "SingleDoor_Type_Tall.024_EmerganceyDouble_Door_Color_2_0"
    },
    {
      "children": [
        6
      ],
      "matrix": [
        1.0,
        0.0,
        0.0,
        0.0,
        -0.0,
        -1.6292067939183141e-07,
        -0.9999999999999868,
        0.0,
        0.0,
        0.9999999999999868,
        -1.6292067939183141e-07,
        0.0,
        -90.14068603515625,
        15.983839988708496,
        -1.4543533325195313e-05,
        1.0
      ],
      "name": "SingleDoor_Type_Tall.026"
    },
    {
      "mesh": 1,
      "name": "SingleDoor_Type_Tall.026_Single_Door_Glass_Frame_Color_1_0"
    },
    {
      "children": [
        8
      ],
      "matrix": [
        1.0,
        0.0,
        0.0,
        0.0,
        -0.0,
        -1.6292067939183141e-07,
        -0.9999999999999868,
        0.0,
        0.0,
        0.9999999999999868,
        -1.6292067939183141e-07,
        0.0,
        -90.14068603515625,
        15.983839988708496,
        -1.4543533325195313e-05,
        1.0
      ],
      "name": "SingleDoor_Type_Tall.027"
    },
    {
      "mesh": 2,
      "name": "SingleDoor_Type_Tall.027_Single_Door_Glass_Color_1.001_0"
    },
    {
      "children": [
        10
      ],
      "matrix": [
        1.0,
        0.0,
        0.0,
        0.0,
        -0.0,
        -1.6292067939183141e-07,
        -0.9999999999999868,
        0.0,
        0.0,
        0.9999999999999868,
        -1.6292067939183141e-07,
        0.0,
        -94.6298828125,
        10.74906063079834,
        0.5901130437850952,
        1.0
      ],
      "name": "Emergancey_Door_Handel_Holder.000"
    },
    {
      "mesh": 3,
      "name": "Emergancey_Door_Handel_Holder.000_Emergancey_Door_Handel_Holder_Color_1_0"
    },
    {
      "children": [
        12
      ],
      "matrix": [
        1.0,
        0.0,
        0.0,
        0.0,
        -0.0,
        -1.6292067939183141e-07,
        -0.9999999999999868,
        0.0,
        0.0,
        0.9999999999999868,
        -1.6292067939183141e-07,
        0.0,
        -94.6298828125,
        10.74906063079834,
        0.9698770046234131,
        1.0
      ],
      "name": "Emergancey_Door_Pin_Holder.000"
    },
    {
      "mesh": 4,
      "name": "Emergancey_Door_Pin_Holder.000_Emergancey_Door_Pin_Holder_Color_1_0"
    },
    {
      "children": [
        14
      ],
      "matrix": [
        1.0,
        0.0,
        0.0,
        0.0,
        -0.0,
        -1.6292067939183141e-07,
        -0.9999999999999868,
        0.0,
        0.0,
        0.9999999999999868,
        -1.6292067939183141e-07,
        0.0,
        -94.6298828125,
        10.74906063079834,
        0.9994406700134277,
        1.0
      ],
      "name": "Emergancey_Door_Handel_Pin.000"
    },
    {
      "mesh": 5,
      "name": "Emergancey_Door_Handel_Pin.000_Emergancey_Door_Handel_Pin_Color_1_0"
    },
    {
      "children": [
        16
      ],
      "matrix": [
        1.0,
        0.0,
        0.0,
        0.0,
        0.0,
        -0.7232555533126126,
        -0.6905804837978458,
        0.0,
        0.0,
        0.6905804837978458,
        -0.7232555533126126,
        0.0,
        -94.64048767089844,
        10.74906063079834,
        0.9994406700134277,
        1.0
      ],
      "name": "Emergancey_Door_Handel.000"
    },
    {
      "mesh": 6,
      "name": "Emergancey_Door_Handel.000_Emergancey_Door_Handel_Color_0"
    },
    {
      "children": [
        18
      ],
      "matrix": [
        1.0,
        0.0,
        0.0,
        0.0,
        -0.0,
        -1.6292067939183141e-07,
        -0.9999999999999868,
        0.0,
        0.0,
        0.9999999999999868,
        -1.6292067939183141e-07,
        0.0,
        -94.6298828125,
        10.346508026123047,
        0.41116994619369507,
        1.0
      ],
      "name": "Emergancey_Door_Pole.000"
    },
    {
      "mesh": 7,
      "name": "Emergancey_Door_Pole.000_Emergancey_Door_Pole_Color_1_0"
    },
    {
      "children": [
        20
      ],
      "matrix": [
        1.0,
        0.0,
        0.0,
        0.0,
        -0.0,
        -1.6292067939183141e-07,
        -0.9999999999999868,
        0.0,
        0.0,
        0.9999999999999868,
        -1.6292067939183141e-07,
        0.0,
        -94.6298828125,
        20.02764129638672,
        0.5017984509468079,
        1.0
      ],
      "name": "Emergancey_Door_Pole_Holders_Type_1.000"
    },
    {
      "mesh": 8,
      "name": "Emergancey_Door_Pole_Holders_Type_1.000_Emergancey_Door_Pole_Holders_Color_1_0"
    },
    {
      "children": [
        22
      ],
      "matrix": [
        1.0,
        0.0,
        0.0,
        0.0,
        -0.0,
        -1.6292067939183141e-07,
        -0.9999999999999868,
        0.0,
        0.0,
        0.9999999999999868,
        -1.6292067939183141e-07,
        0.0,
        -94.6298828125,
        10.74906063079834,
        0.9698770046234131,
        1.0
      ],
      "name": "Emergancey_Door_Pole_Holders_Type_2.000"
    },
    {
      "mesh": 9,
      "name": "Emergancey_Door_Pole_Holders_Type_2.000_Emergancey_Door_Pole_Holders_Color_1_0"
    },
    {
      "children": [
        24
      ],
      "matrix": [
        1.0,
        0.0,
        0.0,
        0.0,
        -0.0,
        -1.6292067939183141e-07,
        -0.9999999999999868,
        0.0,
        0.0,
        0.9999999999999868,
        -1.6292067939183141e-07,
        0.0,
        -94.6298828125,
        19.85627555847168,
        0.5017984509468079,
        1.0
      ],
      "name": "SingleDoor_Type_Tall.035"
    },
    {
      "mesh": 10,
      "name": "SingleDoor_Type_Tall.035_Emergancey_Door_Pole_Holders_Color_1_0"
    },
    {
      "children": [
        26
      ],
      "matrix": [
        1.0,
        0.0,
        0.0,
        0.0,
        -0.0,
        -1.6292067939183141e-07,
        -0.9999999999999868,
        0.0,
        0.0,
        0.9999999999999868,
        -1.6292067939183141e-07,
        0.0,
        -90.14068603515625,
        15.983839988708496,
        -1.4543533325195313e-05,
        1.0
      ],
      "name": "SingleDoor_Type_Tall.039"
    },
    {
      "mesh": 11,
      "name": "SingleDoor_Type_Tall.039_Single_Door_Glass_Color_1.001_0"
    },
    {
      "children": [
        28
      ],
      "matrix": [
        1.0,
        0.0,
        0.0,
        0.0,
        -0.0,
        -1.6292067939183141e-07,
        -0.9999999999999868,
        0.0,
        0.0,
        0.9999999999999868,
        -1.6292067939183141e-07,
        0.0,
        -90.14068603515625,
        15.983839988708496,
        -1.4543533325195313e-05,
        1.0
      ],
      "name": "SingleDoor_Type_Tall.040"
    },
    {
      "mesh": 12,
      "name": "SingleDoor_Type_Tall.040_Single_Door_Glass_Frame_Color_1_0"
    },
    {
      "children": [
        30
      ],
      "matrix": [
        1.0,
        0.0,
        0.0,
        0.0,
        -0.0,
        -1.6292067939183141e-07,
        -0.9999999999999868,
        0.0,
        0.0,
        0.9999999999999868,
        -1.6292067939183141e-07,
        0.0,
        -94.6298828125,
        20.02764129638672,
        0.5017984509468079,
        1.0
      ],
      "name": "Emergancey_Door_Pole_Holders_Type_1.001"
    },
    {
      "mesh": 13,
      "name": "Emergancey_Door_Pole_Holders_Type_1.001_Emergancey_Door_Pole_Holders_Color_1_0"
    },
    {
      "children": [
        32
      ],
      "matrix": [
        1.0,
        0.0,
        0.0,
        0.0,
        -0.0,
        -1.6292067939183141e-07,
        -0.9999999999999868,
        0.0,
        0.0,
        0.9999999999999868,
        -1.6292067939183141e-07,
        0.0,
        -94.6298828125,
        19.85627555847168,
        0.5017984509468079,
        1.0
      ],
      "name": "SingleDoor_Type_Tall.045"
    },
    {
      "mesh": 14,
      "name": "SingleDoor_Type_Tall.045_Emergancey_Door_Pole_Holders_Color_1_0"
    },
    {
      "children": [
        34
      ],
      "matrix": [
        1.0,
        0.0,
        0.0,
        0.0,
        -0.0,
        -1.6292067939183141e-07,
        -0.9999999999999868,
        0.0,
        0.0,
        0.9999999999999868,
        -1.6292067939183141e-07,
        0.0,
        -94.6298828125,
        10.74906063079834,
        0.9698770046234131,
        1.0
      ],
      "name": "Emergancey_Door_Pole_Holders_Type_2.001"
    },
    {
      "mesh": 15,
      "name": "Emergancey_Door_Pole_Holders_Type_2.001_Emergancey_Door_Pole_Holders_Color_1_0"
    },
    {
      "children": [
        36
      ],
      "matrix": [
        1.0,
        0.0,
        0.0,
        0.0,
        -0.0,
        -1.6292067939183141e-07,
        -0.9999999999999868,
        0.0,
        0.0,
        0.9999999999999868,
        -1.6292067939183141e-07,
        0.0,
        -94.6298828125,
        10.346508026123047,
        0.41116994619369507,
        1.0
      ],
      "name": "Emergancey_Door_Pole.001"
    },
    {
      "mesh": 16,
      "name": "Emergancey_Door_Pole.001_Emergancey_Door_Pole_Color_1_0"
    },
    {
      "children": [
        38
      ],
      "matrix": [
        1.0,
        0.0,
        0.0,
        0.0,
        -0.0,
        -1.6292067939183141e-07,
        -0.9999999999999868,
        0.0,
        0.0,
        0.9999999999999868,
        -1.6292067939183141e-07,
        0.0,
        -94.6298828125,
        10.74906063079834,
        0.5901130437850952,
        1.0
      ],
      "name": "Emergancey_Door_Handel_Holder.001"
    },
    {
      "mesh": 17,
      "name": "Emergancey_Door_Handel_Holder.001_Emergancey_Door_Handel_Holder_Color_1_0"
    },
    {
      "children": [
        40
      ],
      "matrix": [
        1.0,
        0.0,
        0.0,
        0.0,
        -0.0,
        -1.6292067939183141e-07,
        -0.9999999999999868,
        0.0,
        0.0,
        0.9999999999999868,
        -1.6292067939183141e-07,
        0.0,
        -94.6298828125,
        10.74906063079834,
        0.9698770046234131,
        1.0
      ],
      "name": "Emergancey_Door_Pin_Holder.001"
    },
    {
      "mesh": 18,
      "name": "Emergancey_Door_Pin_Holder.001_Emergancey_Door_Pin_Holder_Color_1_0"
    },
    {
      "children": [
        42
      ],
      "matrix": [
        1.0,
        0.0,
        0.0,
        0.0,
        0.0,
        -0.7232555533126126,
        -0.6905804837978458,
        0.0,
        0.0,
        0.6905804837978458,
        -0.7232555533126126,
        0.0,
        -94.64048767089844,
        10.74906063079834,
        0.9994406700134277,
        1.0
      ],
      "name": "Emergancey_Door_Handel.001"
    },
    {
      "mesh": 19,
      "name": "Emergancey_Door_Handel.001_Emergancey_Door_Handel_Color_0"
    },
    {
      "children": [
        44
      ],
      "matrix": [
        1.0,
        0.0,
        0.0,
        0.0,
        -0.0,
        -1.6292067939183141e-07,
        -0.9999999999999868,
        0.0,
        0.0,
        0.9999999999999868,
        -1.6292067939183141e-07,
        0.0,
        -94.6298828125,
        10.74906063079834,
        0.9994406700134277,
        1.0
      ],
      "name": "Emergancey_Door_Handel_Pin.001"
    },
    {
      "mesh": 20,
      "name": "Emergancey_Door_Handel_Pin.001_Emergancey_Door_Handel_Pin_Color_1_0"
    },
    {
      "children": [
        46
      ],
      "matrix": [
        1.0,
        0.0,
        0.0,
        0.0,
        -0.0,
        -1.6292067939183141e-07,
        -0.9999999999999868,
        0.0,
        0.0,
        0.9999999999999868,
        -1.6292067939183141e-07,
        0.0,
        -95.48607635498047,
        10.348798751831055,
        -1.4394521713256836e-05,
        1.0
      ],
      "name": "SingleDoor_Type_Tall.025"
    },
    {
      "mesh": 21,
      "name": "SingleDoor_Type_Tall.025_EmerganceyDouble_Door_Color_2_0"
    },
    {
      "children": [
        48
      ],
      "matrix": [
        1.0,
        0.0,
        0.0,
        0.0,
        -0.0,
        -1.6292067939183141e-07,
        -0.9999999999999868,
        0.0,
        0.0,
        0.9999999999999868,
        -1.6292067939183141e-07,
        0.0,
        -95.486083984375,
        10.49992847442627,
        0.34472766518592834,
        1.0
      ],
      "name": "SingleDoor_Type_Tall.023"
    },
    {
      "mesh": 22,
      "name": "SingleDoor_Type_Tall.023_DoubleDoor_Frame_Color_Type_1_0"
    }
  ],
  "scene": 0,
  "scenes": [
    {
      "name": "Sketchfab_Scene",
      "nodes": [
        0
      ]
    }
  ]
}
